<?xml version="1.0" encoding="iso-8859-1"?>
<!-- Generator: Adobe Illustrator 19.1.0, SVG Export Plug-In . SVG Version: 6.00 Build 0)  -->
<svg version="1.1" id="Capa_1" xmlns="http://www.w3.org/2000/svg" xmlns:xlink="http://www.w3.org/1999/xlink" x="0px" y="0px"
	 viewBox="0 0 338.839 338.839" style="enable-background:new 0 0 338.839 338.839;" xml:space="preserve">
<g>
	<path style="fill:#FFFFFF;" d="M138.702,243.979c1.123,0,2.195,0.211,3.192,0.578c-1.305-3.541-4.704-6.078-8.692-6.078
		c-5.112,0-9.271,4.159-9.271,9.271c0,3.989,2.537,7.387,6.079,8.692c-0.368-0.997-0.579-2.069-0.579-3.192
		C129.431,248.137,133.59,243.979,138.702,243.979z"/>
	<path style="fill:#BA82AA;" d="M129.431,253.249c0,1.123,0.211,2.195,0.579,3.192c0,0,0,0,0,0c0.997,0.367,2.069,0.578,3.192,0.578
		c5.112,0,9.271-4.159,9.271-9.271c0-1.123-0.211-2.195-0.578-3.192c-0.997-0.367-2.069-0.578-3.192-0.578
		C133.59,243.979,129.431,248.137,129.431,253.249z"/>
	<path style="fill:#FFFFFF;" d="M108.737,247.749c0-17.491,12.915-32.021,29.709-34.559c-1.711-0.259-3.462-0.395-5.245-0.395
		c-19.274,0-34.954,15.68-34.954,34.954c0,19.274,15.68,34.955,34.954,34.955c1.782,0,3.534-0.136,5.245-0.395
		C121.651,279.771,108.737,265.241,108.737,247.749z"/>
	<path style="fill:#FFFFFF;" d="M154.429,184.773c-6.042-0.255-12.351-0.185-18.926,0.299c-45.585,3.355-68.99,19.526-82.817,40.263
		c7.959-5.544,16.801-10.718,26.461-15.062c14.548-13.195,36.136-22.716,69.901-25.201
		C150.865,184.938,152.653,184.846,154.429,184.773z"/>
	<path style="fill:#FFFFFF;" d="M28.59,131.198C64.91,103.92,117.747,78.296,164.225,65.52c15.367-4.225,30.831-6.366,45.962-6.366
		c11.48,0,22.311,1.241,32.405,3.317c-13.739-4.047-29.151-6.704-45.951-6.704c-15.132,0-30.596,2.142-45.962,6.366
		c-46.479,12.776-99.315,38.4-135.635,65.678c-0.221,3.92-0.002,11.366,3.996,16.957c2.445,3.42,5.996,5.694,10.806,6.908
		c0.986-0.617,2.231-1.391,3.702-2.301c-0.338-0.389-0.658-0.795-0.962-1.22C28.587,142.564,28.369,135.118,28.59,131.198z"/>
	<path style="fill:none;" d="M90.602,221.72c-19.82,7.909-36.175,19.95-48.593,31.49c7.459,7.491,24.708,21.523,53.542,27.289
		c-7.648-8.775-12.305-20.221-12.305-32.749C83.247,238.214,85.945,229.305,90.602,221.72z"/>
	<path style="fill:none;" d="M183.155,247.749c0,10.366-3.178,19.999-8.607,27.986c18.525-5.304,30.534-12.461,38.065-18.589
		c6.396-5.204,10.207-10.159,12.351-13.59c-17.253-11.692-34.407-20.066-51.325-25.101
		C179.623,226.69,183.155,236.814,183.155,247.749z"/>
	<path style="fill:#BA82AA;" d="M269.322,223.428c-6.677,1.437-13.777,0.252-21.506-3.591c-0.354,0.325-0.702,0.657-1.068,0.971
		c-4.972,4.264-10.486,6.993-15.77,8.735c2.49,1.646,4.98,3.349,7.47,5.123c8.08,4.26,15.058,4.881,21.318,1.886
		c5.719-2.736,10.532-8.227,14.462-14.686C272.653,222.536,271.02,223.062,269.322,223.428z"/>
	<path style="fill:#BA82AA;" d="M214.774,203.978c-4.356,3.88-9.227,6.654-14.09,8.659c3.297,1.499,6.597,3.112,9.898,4.836
		c3.692,0.142,14.928-0.009,23.977-6.202c-4.182-2.942-9.855-6.53-16.913-10.113C216.735,202.132,215.785,203.077,214.774,203.978z"
		/>
	<path style="fill:#BA82AA;" d="M167.56,201.356c1.753,0.395,3.508,0.828,5.264,1.289c3.016,0.102,18.556,0.177,29.792-8.106
		c-6.271-2.365-13.219-4.505-20.803-6.19C178.122,193.367,173.358,197.723,167.56,201.356z"/>
	<path style="fill:#BA82AA;" d="M210.187,59.154c-15.132,0-30.596,2.142-45.962,6.366c-46.478,12.776-99.315,38.4-135.634,65.678
		c-0.222,3.92-0.003,11.366,3.995,16.957c0.304,0.424,0.624,0.831,0.962,1.22l0,0c22.451-13.886,98.309-59.631,134.618-66.826
		c14.617-2.896,30.845-4.365,48.233-4.365c28.41,0,56.075,3.836,78.226,9.341c-1.268-0.876-2.569-1.753-3.907-2.63
		c-11.97-7.848-28.304-16.584-48.125-22.422c0,0-0.001,0-0.001,0C232.498,60.394,221.667,59.154,210.187,59.154z"/>
	<path style="fill:#7F3960;" d="M336.721,104.337c-2.304-2.667-15.277-17.151-37.318-31.685
		c-22.059-14.546-57.794-31.886-102.762-31.886c-16.475,0-33.277,2.322-49.938,6.903C97.404,61.221,41.136,88.772,3.353,117.857
		c-1.474,1.134-2.474,2.776-2.805,4.606c-0.13,0.72-3.087,17.789,6.205,30.91c5.249,7.412,13.107,12.005,23.355,13.652
		c0.396,0.064,0.793,0.095,1.19,0.095c1.413,0,2.806-0.399,4.013-1.164c0.96-0.608,96.499-60.913,135.77-68.695
		c13.659-2.707,28.906-4.079,45.317-4.079c46.823,0,95.008,11.651,110.634,22.532c1.319,0.919,2.855,1.331,4.352,1.345
		c4.121-0.025,7.454-3.373,7.454-7.5C338.839,107.53,338.032,105.688,336.721,104.337z M29.846,151.676
		c-4.81-1.213-8.36-3.487-10.806-6.908c-3.998-5.591-4.217-13.037-3.996-16.957c36.319-27.278,89.156-52.902,135.634-65.678
		c15.367-4.225,30.831-6.366,45.962-6.366c16.801,0,32.213,2.657,45.953,6.705c19.82,5.839,36.155,14.575,48.125,22.422
		c1.338,0.878,2.639,1.754,3.907,2.63c-22.15-5.505-49.815-9.341-78.226-9.341c-17.388,0-33.616,1.469-48.233,4.365
		c-36.31,7.195-112.167,52.94-134.618,66.826C32.077,150.285,30.832,151.059,29.846,151.676z"/>
	<path style="fill:#FFA6BB;" d="M138.446,213.19L138.446,213.19c-16.795,2.538-29.71,17.068-29.71,34.559
		c0,17.492,12.915,32.022,29.709,34.56h0.001c16.794-2.538,29.709-17.068,29.709-34.56
		C168.155,230.259,155.241,215.728,138.446,213.19z M133.202,272.02c-13.383,0-24.271-10.888-24.271-24.271
		c0-13.383,10.888-24.271,24.271-24.271c13.383,0,24.271,10.888,24.271,24.271C157.472,261.133,146.585,272.02,133.202,272.02z"/>
	<path style="fill:#7F3960;" d="M133.202,223.479c-13.383,0-24.271,10.888-24.271,24.271c0,13.383,10.888,24.271,24.271,24.271
		c13.383,0,24.271-10.888,24.271-24.271C157.472,234.366,146.585,223.479,133.202,223.479z M123.931,247.749
		c0-5.112,4.159-9.271,9.271-9.271c3.989,0,7.387,2.537,8.692,6.078c0.367,0.997,0.578,2.069,0.578,3.192
		c0,5.112-4.159,9.271-9.271,9.271c-1.123,0-2.195-0.211-3.192-0.578C126.468,255.137,123.931,251.738,123.931,247.749z"/>
	<path style="fill:none;" d="M90.602,221.72c-19.82,7.909-36.175,19.95-48.593,31.49c7.459,7.491,24.708,21.523,53.542,27.289
		c-7.648-8.775-12.305-20.221-12.305-32.749C83.247,238.214,85.945,229.305,90.602,221.72z"/>
	<path style="fill:none;" d="M202.616,194.539c-6.271-2.365-13.219-4.505-20.803-6.19c-3.691,5.019-8.455,9.375-14.253,13.008
		c1.753,0.395,3.508,0.828,5.264,1.289C175.839,202.746,191.379,202.822,202.616,194.539z"/>
	<path style="fill:none;" d="M247.816,219.837c-0.354,0.325-0.702,0.657-1.068,0.971c-4.972,4.264-10.486,6.993-15.77,8.735
		c2.49,1.646,4.98,3.349,7.47,5.123c8.08,4.26,15.058,4.881,21.318,1.886c5.719-2.736,10.532-8.227,14.462-14.686
		c-1.575,0.67-3.209,1.196-4.906,1.562C262.645,224.864,255.544,223.679,247.816,219.837z"/>
	<path style="fill:none;" d="M217.647,201.158c-0.912,0.974-1.862,1.919-2.873,2.82c-4.356,3.88-9.227,6.654-14.09,8.659
		c3.297,1.499,6.597,3.112,9.898,4.836c3.692,0.142,14.928-0.009,23.977-6.202C230.377,208.329,224.704,204.741,217.647,201.158z"/>
	<path style="fill:none;" d="M183.155,247.749c0,10.366-3.178,19.999-8.607,27.986c18.525-5.304,30.534-12.461,38.065-18.589
		c6.396-5.204,10.207-10.159,12.351-13.59c-17.253-11.692-34.407-20.066-51.325-25.101
		C179.623,226.69,183.155,236.814,183.155,247.749z"/>
	<path style="fill:#BA82AA;" d="M79.148,210.273c13.556-6.096,28.737-10.543,45.462-11.976c0.014-0.001,0.029-0.002,0.043-0.003
		c1.931-0.165,3.881-0.291,5.852-0.374c7.811-0.787,22.808-3.45,33.473-12.462c-3.102-0.319-6.289-0.547-9.551-0.685
		c-1.775,0.073-3.563,0.165-5.378,0.299C115.284,187.557,93.696,197.077,79.148,210.273z"/>
	<path style="fill:#7F3960;" d="M297.127,181.567c-3.429-1.267-7.271,0.125-9.096,3.292c-8.732,15.157-15.476,22.529-21.866,23.905
		c-2.635,0.566-5.646,0.176-9.079-1.171c3.5-6.88,5.472-15.027,5.87-24.388c0.176-4.138-3.036-7.636-7.175-7.812
		c-4.143-0.187-7.636,3.036-7.812,7.175c-0.283,6.645-1.545,12.376-3.763,17.16c-4.46-3.196-10.609-7.18-18.347-11.2
		c2.444-5.725,3.835-12.188,4.14-19.36c0.176-4.138-3.037-7.636-7.175-7.811c-4.153-0.196-7.636,3.037-7.812,7.175
		c-0.218,5.123-1.159,9.692-2.806,13.687c-7.002-2.864-14.841-5.514-23.473-7.639c1.332-4.295,2.116-8.894,2.324-13.785
		c0.176-4.138-3.037-7.636-7.175-7.812c-4.142-0.194-7.636,3.037-7.812,7.175c-0.182,4.283-0.977,8.078-2.234,11.452
		c-11.97-1.831-25.146-2.548-39.437-1.498c-74.859,5.509-97.549,43.615-109.844,80.196c-0.002,0.008-0.005,0.016-0.008,0.023
		c-0.009,0.027-0.019,0.054-0.027,0.081l0.002,0.003c-0.753,2.252-0.421,4.806,1.068,6.829c1.226,1.667,30.803,40.825,96.82,40.828
		c0.003,0,0.005,0,0.008,0c4.538,0,9.208-0.191,13.881-0.568c68.569-5.526,93.506-33.003,101.751-46.609
		c9.958,3.65,19.412,3.385,28.186-0.812c26.532-12.693,35.303-58.173,35.664-60.103
		C302.574,186.386,300.557,182.833,297.127,181.567z M181.813,188.348c7.584,1.686,14.531,3.826,20.803,6.19
		c-11.236,8.283-26.776,8.208-29.792,8.106c-1.756-0.46-3.511-0.894-5.264-1.289C173.358,197.723,178.122,193.367,181.813,188.348z
		 M135.503,185.072c6.575-0.484,12.883-0.554,18.924-0.299c3.262,0.138,6.449,0.366,9.551,0.685
		c-10.665,9.012-25.663,11.675-33.473,12.462c-1.971,0.083-3.921,0.208-5.852,0.374c-0.014,0.001-0.029,0.002-0.043,0.003
		c-16.725,1.432-31.906,5.88-45.462,11.976c-9.661,4.344-18.503,9.518-26.462,15.062C66.513,204.598,89.918,188.427,135.503,185.072
		z M42.009,253.21c12.418-11.54,28.772-23.581,48.593-31.49c-4.657,7.585-7.355,16.494-7.355,26.029
		c0,12.528,4.656,23.974,12.305,32.749C66.717,274.733,49.468,260.7,42.009,253.21z M133.201,282.704
		c-19.274,0-34.954-15.681-34.954-34.955c0-19.273,15.68-34.954,34.954-34.954c1.783,0,3.534,0.136,5.245,0.395
		c16.794,2.538,29.709,17.068,29.709,34.559c0,17.492-12.915,32.022-29.709,34.56C136.735,282.568,134.984,282.704,133.201,282.704z
		 M212.614,257.146c-7.532,6.128-19.54,13.285-38.065,18.589c5.429-7.987,8.607-17.621,8.607-27.986
		c0-10.935-3.532-21.059-9.516-29.294c16.918,5.034,34.072,13.408,51.325,25.101C222.821,246.988,219.009,251.942,212.614,257.146z
		 M210.582,217.473c-3.302-1.725-6.602-3.337-9.898-4.836c4.864-2.005,9.734-4.779,14.09-8.659c1.011-0.9,1.961-1.846,2.873-2.82
		c7.057,3.583,12.73,7.171,16.913,10.113C225.51,217.464,214.274,217.615,210.582,217.473z M259.766,236.552
		c-6.26,2.995-13.238,2.374-21.318-1.886c-2.49-1.773-4.98-3.476-7.47-5.123c5.284-1.743,10.798-4.472,15.77-8.735
		c0.367-0.314,0.714-0.646,1.068-0.971c7.729,3.842,14.829,5.027,21.506,3.591c1.698-0.366,3.331-0.892,4.906-1.562
		C270.297,228.325,265.484,233.816,259.766,236.552z"/>
</g>
<g>
</g>
<g>
</g>
<g>
</g>
<g>
</g>
<g>
</g>
<g>
</g>
<g>
</g>
<g>
</g>
<g>
</g>
<g>
</g>
<g>
</g>
<g>
</g>
<g>
</g>
<g>
</g>
<g>
</g>
</svg>
